<svg width="10" height="10" viewBox="0 0 10 10" fill="none" xmlns="http://www.w3.org/2000/svg">
<path d="M0.716936 9.36L0 9.06403C0.199149 8.62008 0.836425 8.36111 1.51353 8.06514C2.19064 7.76917 3.02706 7.43621 3.02706 7.02925V6.47431C2.78809 6.28933 2.38979 5.88237 2.31013 5.29043C2.11098 5.10545 1.79234 4.77249 1.79234 4.32854C1.79234 4.06957 1.91183 3.84759 1.99149 3.6996C1.91183 3.40364 1.83217 2.8487 1.83217 2.40474C1.83217 0.961897 2.90757 0 4.62026 0C5.09821 0 5.69566 0.110988 6.0143 0.443952C6.77106 0.591937 7.40834 1.40585 7.40834 2.40474C7.40834 3.03368 7.28885 3.55162 7.20919 3.81059C7.28885 3.92158 7.36851 4.10656 7.36851 4.32854C7.36851 4.80949 7.0897 5.14245 6.85072 5.29043C6.77106 5.88237 6.4126 6.25233 6.17362 6.43731V7.02925C6.17362 7.36221 6.89055 7.62119 7.52783 7.84316C8.2846 8.10213 9.08119 8.3981 9.36 8.99004L8.60323 9.24901C8.48374 8.95304 7.84647 8.73107 7.24902 8.54609C6.37277 8.25012 5.37702 7.91715 5.37702 7.06625V6.10435L5.57617 5.99336C5.57617 5.99336 6.05413 5.69739 6.05413 5.10545V4.84648L6.29311 4.73549C6.33294 4.73549 6.53209 4.62451 6.53209 4.32854C6.53209 4.25455 6.45243 4.14356 6.4126 4.10656L6.25328 3.95858L6.33294 3.7736C6.33294 3.7736 6.53209 3.18166 6.53209 2.44174C6.53209 1.73881 6.09396 1.22087 5.73549 1.22087H5.49651L5.37702 1.03589C5.37702 0.887905 5.09821 0.739921 4.62026 0.739921C3.38553 0.739921 2.62877 1.36885 2.62877 2.40474C2.62877 2.88569 2.82792 3.6996 2.82792 3.6996L2.86775 3.88458L2.70843 4.06956C2.6686 4.06956 2.58894 4.18055 2.58894 4.32854C2.58894 4.51352 2.82791 4.73549 2.9474 4.80949L3.10672 4.92047V5.10545C3.10672 5.66039 3.62451 5.95636 3.62451 5.99336L3.82366 6.10435V7.06625C3.82366 7.95415 2.78809 8.3981 1.83217 8.76806C1.39404 8.91605 0.796596 9.17502 0.716936 9.36Z" fill="#3CC92E"/>
</svg>
