<svg width="137" height="24" viewBox="0 0 137 24" fill="none" xmlns="http://www.w3.org/2000/svg">
<path d="M17.4629 23H13.0684V13.8594H4.49902V23H0.104492V1.67188H4.49902V10.3145H13.0684V1.67188H17.4629V23ZM30.2217 23C30.0264 22.6191 29.8848 22.1455 29.7969 21.5791C28.7715 22.7217 27.4385 23.293 25.7979 23.293C24.2451 23.293 22.9561 22.8438 21.9307 21.9453C20.915 21.0469 20.4072 19.9141 20.4072 18.5469C20.4072 16.8672 21.0273 15.5781 22.2676 14.6797C23.5176 13.7812 25.3193 13.3271 27.6729 13.3174H29.6211V12.4092C29.6211 11.6768 29.4307 11.0908 29.0498 10.6514C28.6787 10.2119 28.0879 9.99219 27.2773 9.99219C26.5645 9.99219 26.0029 10.1631 25.5928 10.5049C25.1924 10.8467 24.9922 11.3154 24.9922 11.9111H20.7588C20.7588 10.9932 21.042 10.1436 21.6084 9.3623C22.1748 8.58105 22.9756 7.9707 24.0107 7.53125C25.0459 7.08203 26.208 6.85742 27.4971 6.85742C29.4502 6.85742 30.998 7.35059 32.1406 8.33691C33.293 9.31348 33.8691 10.6904 33.8691 12.4678V19.3379C33.8789 20.8418 34.0889 21.9795 34.499 22.751V23H30.2217ZM26.7207 20.0557C27.3457 20.0557 27.9219 19.9189 28.4492 19.6455C28.9766 19.3623 29.3672 18.9863 29.6211 18.5176V15.793H28.0391C25.9199 15.793 24.792 16.5254 24.6553 17.9902L24.6406 18.2393C24.6406 18.7666 24.8262 19.2012 25.1973 19.543C25.5684 19.8848 26.0762 20.0557 26.7207 20.0557ZM46.0273 11.1201C45.4512 11.042 44.9434 11.0029 44.5039 11.0029C42.9023 11.0029 41.8525 11.5449 41.3545 12.6289V23H37.1211V7.15039H41.1201L41.2373 9.04004C42.0869 7.58496 43.2637 6.85742 44.7676 6.85742C45.2363 6.85742 45.6758 6.9209 46.0859 7.04785L46.0273 11.1201ZM52.0479 7.15039L52.1797 8.92285C53.3027 7.5459 54.8213 6.85742 56.7354 6.85742C58.7764 6.85742 60.1777 7.66309 60.9395 9.27441C62.0527 7.66309 63.6396 6.85742 65.7002 6.85742C67.4189 6.85742 68.6982 7.36035 69.5381 8.36621C70.3779 9.3623 70.7979 10.8662 70.7979 12.8779V23H66.5498V12.8926C66.5498 11.9941 66.374 11.3398 66.0225 10.9297C65.6709 10.5098 65.0508 10.2998 64.1621 10.2998C62.8926 10.2998 62.0137 10.9053 61.5254 12.1162L61.54 23H57.3066V12.9072C57.3066 11.9893 57.126 11.3252 56.7646 10.915C56.4033 10.5049 55.7881 10.2998 54.9189 10.2998C53.7178 10.2998 52.8486 10.7979 52.3115 11.7939V23H48.0781V7.15039H52.0479ZM83.5566 21.3887C82.5117 22.6582 81.0664 23.293 79.2207 23.293C77.5215 23.293 76.2227 22.8047 75.3242 21.8281C74.4355 20.8516 73.9814 19.4209 73.9619 17.5361V7.15039H78.1953V17.3896C78.1953 19.04 78.9473 19.8652 80.4512 19.8652C81.8867 19.8652 82.873 19.3672 83.4102 18.3711V7.15039H87.6582V23H83.6738L83.5566 21.3887ZM99.4355 18.6201C99.4355 18.1025 99.1768 17.6973 98.6592 17.4043C98.1514 17.1016 97.3311 16.833 96.1982 16.5986C92.4287 15.8076 90.5439 14.2061 90.5439 11.7939C90.5439 10.3877 91.125 9.21582 92.2871 8.27832C93.459 7.33105 94.9873 6.85742 96.8721 6.85742C98.8838 6.85742 100.49 7.33105 101.691 8.27832C102.902 9.22559 103.508 10.4561 103.508 11.9697H99.2744C99.2744 11.3643 99.0791 10.8662 98.6885 10.4756C98.2979 10.0752 97.6875 9.875 96.8574 9.875C96.1445 9.875 95.5928 10.0361 95.2021 10.3584C94.8115 10.6807 94.6162 11.0908 94.6162 11.5889C94.6162 12.0576 94.8359 12.4385 95.2754 12.7314C95.7246 13.0146 96.4766 13.2637 97.5312 13.4785C98.5859 13.6836 99.4746 13.918 100.197 14.1816C102.434 15.002 103.552 16.4229 103.552 18.4443C103.552 19.8896 102.932 21.0615 101.691 21.96C100.451 22.8486 98.8496 23.293 96.8867 23.293C95.5586 23.293 94.377 23.0586 93.3418 22.5898C92.3164 22.1113 91.5107 21.4619 90.9248 20.6416C90.3389 19.8115 90.0459 18.918 90.0459 17.9609H94.0596C94.0986 18.7129 94.377 19.2891 94.8945 19.6895C95.4121 20.0898 96.1055 20.29 96.9746 20.29C97.7852 20.29 98.3955 20.1387 98.8057 19.8359C99.2256 19.5234 99.4355 19.1182 99.4355 18.6201ZM113.586 23.293C111.262 23.293 109.367 22.5801 107.902 21.1543C106.447 19.7285 105.72 17.8291 105.72 15.4561V15.0459C105.72 13.4541 106.027 12.0332 106.643 10.7832C107.258 9.52344 108.127 8.55664 109.25 7.88281C110.383 7.19922 111.672 6.85742 113.117 6.85742C115.285 6.85742 116.989 7.54102 118.229 8.9082C119.479 10.2754 120.104 12.2139 120.104 14.7236V16.4521H110.012C110.148 17.4873 110.559 18.3174 111.242 18.9424C111.936 19.5674 112.81 19.8799 113.864 19.8799C115.495 19.8799 116.77 19.2891 117.688 18.1074L119.768 20.4365C119.133 21.335 118.273 22.0381 117.189 22.5459C116.105 23.0439 114.904 23.293 113.586 23.293ZM113.103 10.2852C112.263 10.2852 111.579 10.5684 111.052 11.1348C110.534 11.7012 110.202 12.5117 110.056 13.5664H115.944V13.2295C115.925 12.292 115.671 11.5693 115.183 11.0615C114.694 10.5439 114.001 10.2852 113.103 10.2852ZM121.862 14.958C121.862 12.4873 122.414 10.5195 123.518 9.05469C124.631 7.58984 126.149 6.85742 128.073 6.85742C129.616 6.85742 130.891 7.43359 131.896 8.58594V0.5H136.145V23H132.321L132.116 21.3154C131.062 22.6338 129.704 23.293 128.044 23.293C126.179 23.293 124.68 22.5605 123.547 21.0957C122.424 19.6211 121.862 17.5752 121.862 14.958ZM126.096 15.2656C126.096 16.75 126.354 17.8877 126.872 18.6787C127.39 19.4697 128.142 19.8652 129.128 19.8652C130.437 19.8652 131.359 19.3135 131.896 18.21V11.9551C131.369 10.8516 130.456 10.2998 129.157 10.2998C127.116 10.2998 126.096 11.9551 126.096 15.2656Z" fill="#ECEBEB"/>
</svg>
