<svg width="55" height="55" viewBox="0 0 55 55" fill="none" xmlns="http://www.w3.org/2000/svg">
<rect width="55" height="55" rx="27.5" fill="black"/>
<path d="M25.632 25.332C25.776 25.476 25.848 25.614 25.848 25.746C25.848 25.854 25.8 25.932 25.704 25.98C25.62 26.028 25.5 26.04 25.344 26.016L24.21 26.106C24.186 26.106 24.114 26.112 23.994 26.124C23.874 26.124 23.664 26.124 23.364 26.124C23.244 26.364 23.094 26.694 22.914 27.114C22.734 27.534 22.644 27.768 22.644 27.816C22.644 27.948 22.614 28.044 22.554 28.104C22.518 28.104 22.494 28.134 22.482 28.194C22.47 28.242 22.464 28.278 22.464 28.302C22.464 28.338 22.434 28.464 22.374 28.68C22.734 28.668 23.124 28.662 23.544 28.662C23.856 28.662 24.066 28.68 24.174 28.716C24.282 28.74 24.402 28.812 24.534 28.932C24.678 29.076 24.75 29.214 24.75 29.346C24.75 29.454 24.702 29.532 24.606 29.58C24.522 29.628 24.402 29.64 24.246 29.616L23.112 29.706C23.088 29.706 22.998 29.712 22.842 29.724C22.686 29.724 22.416 29.724 22.032 29.724C21.624 31.068 21.294 32.178 21.042 33.054C20.802 33.93 20.682 34.494 20.682 34.746C20.682 35.058 20.67 35.25 20.646 35.322C20.634 35.406 20.586 35.472 20.502 35.52C20.466 35.532 20.406 35.538 20.322 35.538C20.13 35.538 19.98 35.442 19.872 35.25C19.764 35.058 19.71 34.794 19.71 34.458C19.71 34.182 19.746 33.864 19.818 33.504C19.95 33.156 20.016 32.904 20.016 32.748C20.04 32.604 20.148 32.226 20.34 31.614C20.532 30.99 20.736 30.366 20.952 29.742L18.054 29.778L17.892 30.3C17.832 30.516 17.688 31.008 17.46 31.776C17.232 32.544 17.052 33.186 16.92 33.702C16.788 34.23 16.722 34.578 16.722 34.746C16.722 35.058 16.71 35.25 16.686 35.322C16.674 35.406 16.626 35.472 16.542 35.52C16.506 35.532 16.446 35.538 16.362 35.538C16.17 35.538 16.02 35.442 15.912 35.25C15.804 35.058 15.75 34.794 15.75 34.458C15.75 34.182 15.786 33.864 15.858 33.504C15.99 33.156 16.056 32.904 16.056 32.748C16.104 32.508 16.41 31.524 16.974 29.796H16.128C15.888 29.796 15.678 29.766 15.498 29.706C15.33 29.706 15.21 29.688 15.138 29.652C15.078 29.616 15.024 29.55 14.976 29.454C14.904 29.346 14.868 29.262 14.868 29.202C14.868 29.13 14.934 29.076 15.066 29.04C15.198 28.992 15.432 28.95 15.768 28.914C15.936 28.866 16.446 28.824 17.298 28.788C17.382 28.548 17.442 28.38 17.478 28.284C17.514 28.188 17.538 28.128 17.55 28.104C17.598 28.104 17.64 28.068 17.676 27.996C17.712 27.912 17.73 27.822 17.73 27.726C17.73 27.618 17.748 27.51 17.784 27.402C17.832 27.282 17.88 27.198 17.928 27.15C17.928 27.114 17.94 27.048 17.964 26.952C18 26.856 18.018 26.79 18.018 26.754C18.018 26.73 18.03 26.688 18.054 26.628C18.09 26.556 18.108 26.502 18.108 26.466C18.132 26.43 18.15 26.388 18.162 26.34C18.186 26.292 18.21 26.244 18.234 26.196H17.226C16.986 26.196 16.776 26.166 16.596 26.106C16.428 26.106 16.308 26.088 16.236 26.052C16.176 26.016 16.122 25.95 16.074 25.854C16.002 25.746 15.966 25.662 15.966 25.602C15.966 25.53 16.032 25.476 16.164 25.44C16.296 25.392 16.53 25.35 16.866 25.314C17.046 25.266 17.646 25.224 18.666 25.188C19.086 24.144 19.536 22.986 20.016 21.714C20.496 20.43 20.736 19.734 20.736 19.626C20.736 19.434 20.832 19.338 21.024 19.338C21.084 19.278 21.18 19.248 21.312 19.248L21.6 19.536C21.684 19.62 21.738 19.71 21.762 19.806C21.786 19.89 21.798 20.022 21.798 20.202C21.798 20.382 21.774 20.538 21.726 20.67C21.678 20.802 21.558 21.072 21.366 21.48C21.33 21.564 21.282 21.666 21.222 21.786C21.162 21.894 21.096 22.032 21.024 22.2C20.988 22.32 20.85 22.638 20.61 23.154C20.454 23.526 20.298 23.886 20.142 24.234C19.998 24.582 19.872 24.888 19.764 25.152C20.244 25.128 21.072 25.104 22.248 25.08H22.662C23.082 24.024 23.526 22.878 23.994 21.642C24.462 20.406 24.696 19.734 24.696 19.626C24.696 19.434 24.792 19.338 24.984 19.338C25.044 19.278 25.14 19.248 25.272 19.248L25.56 19.536C25.644 19.62 25.698 19.71 25.722 19.806C25.746 19.89 25.758 20.022 25.758 20.202C25.758 20.382 25.734 20.538 25.686 20.67C25.638 20.802 25.518 21.072 25.326 21.48C25.29 21.564 25.242 21.666 25.182 21.786C25.122 21.894 25.056 22.032 24.984 22.2L24.786 22.65C24.282 23.826 23.94 24.63 23.76 25.062H24.642C24.954 25.062 25.164 25.08 25.272 25.116C25.38 25.14 25.5 25.212 25.632 25.332ZM22.068 26.466C22.128 26.346 22.176 26.238 22.212 26.142L19.368 26.178C19.224 26.478 19.074 26.82 18.918 27.204C18.762 27.576 18.684 27.78 18.684 27.816C18.684 27.948 18.654 28.044 18.594 28.104C18.558 28.104 18.534 28.134 18.522 28.194C18.51 28.242 18.504 28.278 18.504 28.302C18.504 28.362 18.468 28.512 18.396 28.752C18.936 28.728 19.902 28.704 21.294 28.68L21.51 28.104C21.558 28.104 21.6 28.068 21.636 27.996C21.672 27.912 21.69 27.822 21.69 27.726C21.69 27.618 21.708 27.51 21.744 27.402C21.792 27.282 21.84 27.198 21.888 27.15C21.888 27.114 21.9 27.048 21.924 26.952C21.96 26.856 21.978 26.79 21.978 26.754C21.978 26.73 21.99 26.688 22.014 26.628C22.05 26.556 22.068 26.502 22.068 26.466ZM33.4727 32.244C33.3047 32.184 33.1427 32.04 32.9867 31.812C32.8427 31.572 32.7707 31.188 32.7707 30.66L32.7887 29.832C32.7887 29.688 32.7767 29.586 32.7527 29.526C32.7407 29.466 32.7107 29.436 32.6627 29.436C32.5067 29.436 32.1707 29.64 31.6547 30.048C31.1507 30.456 30.6407 30.942 30.1247 31.506C30.0647 31.566 29.9807 31.656 29.8727 31.776C29.7767 31.884 29.6867 31.968 29.6027 32.028C29.5187 32.076 29.4407 32.1 29.3687 32.1C29.2607 32.1 29.1587 32.058 29.0627 31.974L28.8647 31.812C28.7807 31.74 28.7387 31.656 28.7387 31.56L28.7747 31.398L29.1887 30.21C29.4527 29.598 29.6087 29.214 29.6567 29.058C29.7047 28.89 29.6987 28.812 29.6387 28.824C29.5307 28.836 29.3807 28.896 29.1887 29.004C28.9967 29.1 28.8767 29.196 28.8287 29.292C28.8047 29.292 28.7267 29.358 28.5947 29.49C28.4627 29.61 28.3487 29.7 28.2527 29.76C28.1447 29.916 27.8807 30.198 27.4607 30.606L27.0287 31.02C26.8487 31.164 26.5967 31.458 26.2727 31.902C26.1047 32.118 26.0087 32.226 25.9847 32.226C25.6127 32.226 25.3787 32.046 25.2827 31.686C25.2347 31.602 25.2107 31.488 25.2107 31.344C25.2107 31.152 25.2827 30.756 25.4267 30.156C25.5347 29.748 25.5947 29.496 25.6067 29.4L25.6967 29.04C25.7207 28.884 25.7747 28.698 25.8587 28.482C25.9427 28.266 26.0867 27.924 26.2907 27.456C26.4107 27.12 26.4707 26.868 26.4707 26.7C26.4707 26.544 26.5247 26.424 26.6327 26.34C26.7407 26.244 26.8607 26.196 26.9927 26.196C27.1607 26.196 27.3047 26.262 27.4247 26.394C27.5447 26.526 27.6047 26.7 27.6047 26.916C27.6047 27.12 27.5567 27.33 27.4607 27.546L27.2627 28.032C27.1667 28.224 27.0407 28.536 26.8847 28.968C26.7407 29.388 26.6687 29.622 26.6687 29.67C26.6807 29.706 26.7227 29.7 26.7947 29.652C26.8667 29.592 26.9507 29.52 27.0467 29.436C27.1547 29.328 27.2807 29.22 27.4247 29.112C27.7847 28.776 28.2107 28.452 28.7027 28.14C29.2067 27.828 29.5907 27.63 29.8547 27.546C30.0107 27.546 30.1247 27.57 30.1967 27.618C30.2807 27.654 30.3707 27.726 30.4667 27.834C30.5627 27.93 30.6347 28.002 30.6827 28.05C30.7907 28.158 30.8447 28.314 30.8447 28.518C30.8447 28.578 30.8327 28.656 30.8087 28.752C30.7607 28.92 30.6947 29.124 30.6107 29.364C30.5387 29.604 30.4847 29.778 30.4487 29.886C30.5327 29.814 30.6827 29.688 30.8987 29.508C31.1147 29.328 31.3127 29.16 31.4927 29.004C32.0927 28.536 32.5667 28.302 32.9147 28.302C33.1667 28.302 33.3827 28.434 33.5627 28.698C33.6707 28.806 33.7367 28.92 33.7607 29.04C33.7847 29.148 33.7967 29.298 33.7967 29.49C33.7967 29.682 33.7967 29.832 33.7967 29.94C33.8087 30.024 33.8147 30.168 33.8147 30.372C33.8267 30.468 33.8387 30.654 33.8507 30.93C33.8747 31.206 33.9047 31.362 33.9407 31.398C34.0007 31.47 34.2047 31.536 34.5527 31.596C34.7687 31.632 34.8767 31.728 34.8767 31.884C34.8767 31.992 34.7987 32.1 34.6427 32.208C34.4867 32.304 34.2947 32.352 34.0667 32.352C33.8507 32.352 33.6527 32.316 33.4727 32.244ZM40.035 32.82C39.831 32.82 39.687 32.76 39.603 32.64C39.459 32.46 39.357 32.316 39.297 32.208C39.249 32.088 39.225 31.95 39.225 31.794C39.225 31.662 39.231 31.554 39.243 31.47L39.315 30.642C39.291 30.618 39.243 30.624 39.171 30.66C39.111 30.696 39.051 30.738 38.991 30.786C38.943 30.834 38.895 30.876 38.847 30.912L38.541 31.164C38.013 31.764 37.551 32.19 37.155 32.442C36.771 32.694 36.411 32.82 36.075 32.82L35.877 32.802C35.625 32.778 35.439 32.658 35.319 32.442C35.199 32.214 35.139 31.926 35.139 31.578C35.139 31.398 35.145 31.266 35.157 31.182C35.205 30.762 35.295 30.372 35.427 30.012C35.559 29.652 35.763 29.262 36.039 28.842C36.243 28.482 36.537 28.134 36.921 27.798C37.317 27.462 37.707 27.228 38.091 27.096C38.451 26.964 38.787 26.898 39.099 26.898C39.303 26.898 39.507 26.928 39.711 26.988C39.855 27.06 39.969 27.096 40.053 27.096C40.149 27.096 40.221 27.036 40.269 26.916C40.317 26.844 40.371 26.712 40.431 26.52C40.527 26.256 40.605 26.07 40.665 25.962L41.061 24.792L41.529 23.676L42.051 22.452C42.291 21.972 42.495 21.732 42.663 21.732C42.759 21.732 42.873 21.798 43.005 21.93C43.113 22.05 43.167 22.182 43.167 22.326C43.167 22.446 43.131 22.596 43.059 22.776C42.999 22.956 42.921 23.166 42.825 23.406C42.669 23.658 42.513 23.958 42.357 24.306L42.087 24.918C41.763 25.686 41.571 26.148 41.511 26.304L41.367 26.79C41.259 27.126 41.181 27.414 41.133 27.654C41.037 28.17 40.953 28.428 40.881 28.428C40.665 28.656 40.461 29.364 40.269 30.552C40.221 30.84 40.197 31.392 40.197 32.208C40.197 32.484 40.185 32.658 40.161 32.73C40.149 32.79 40.107 32.82 40.035 32.82ZM36.201 31.686C36.429 31.686 36.663 31.602 36.903 31.434C37.155 31.254 37.473 30.99 37.857 30.642C38.181 30.33 38.571 29.844 39.027 29.184C39.483 28.524 39.711 28.14 39.711 28.032C39.711 27.984 39.651 27.942 39.531 27.906C39.411 27.87 39.279 27.852 39.135 27.852C39.039 27.852 38.943 27.864 38.847 27.888C38.571 27.948 38.301 28.074 38.037 28.266C37.785 28.446 37.515 28.71 37.227 29.058C36.891 29.478 36.615 29.922 36.399 30.39C36.183 30.858 36.075 31.218 36.075 31.47C36.075 31.614 36.117 31.686 36.201 31.686Z" fill="white"/>
</svg>
