<svg width="50" height="50" viewBox="0 0 50 50" fill="none" xmlns="http://www.w3.org/2000/svg">
<rect width="50" height="50" rx="25" fill="black"/>
<path d="M13.603 26.9971H11.6694L11.0835 30H10.0361L10.6221 26.9971H8.87158V25.9937H10.8125L11.3179 23.4009H9.42822V22.3828H11.5156L12.1162 19.3359H13.1636L12.563 22.3828H14.4966L15.0972 19.3359H16.1519L15.5513 22.3828H17.0454V23.4009H15.3535L14.8481 25.9937H16.4961V26.9971H14.6577L14.0718 30H13.0171L13.603 26.9971ZM11.8599 25.9937H13.7935L14.2988 23.4009H12.3652L11.8599 25.9937ZM19.543 22.0752L19.5796 22.9541C20.1606 22.2705 20.9443 21.9287 21.9307 21.9287C23.0391 21.9287 23.7935 22.3535 24.1938 23.2031C24.4575 22.8223 24.7993 22.5146 25.2192 22.2803C25.644 22.0459 26.1445 21.9287 26.7207 21.9287C28.459 21.9287 29.3428 22.8491 29.3721 24.6899V30H28.0171V24.7705C28.0171 24.2041 27.8877 23.7817 27.6289 23.5034C27.3701 23.2202 26.9355 23.0786 26.3252 23.0786C25.8223 23.0786 25.4048 23.23 25.0728 23.5327C24.7407 23.8306 24.5479 24.2334 24.4941 24.7412V30H23.1318V24.8071C23.1318 23.6548 22.5679 23.0786 21.4399 23.0786C20.5513 23.0786 19.9434 23.457 19.6162 24.2139V30H18.2612V22.0752H19.543ZM31.0933 25.9717C31.0933 24.7559 31.3813 23.7793 31.9575 23.042C32.5337 22.2998 33.2881 21.9287 34.2207 21.9287C35.1484 21.9287 35.8833 22.2461 36.4253 22.8809V18.75H37.7803V30H36.5352L36.4692 29.1504C35.9272 29.8145 35.1729 30.1465 34.2061 30.1465C33.2881 30.1465 32.5386 29.7705 31.9575 29.0186C31.3813 28.2666 31.0933 27.2852 31.0933 26.0742V25.9717ZM32.4482 26.1255C32.4482 27.0239 32.6338 27.7271 33.0049 28.2349C33.376 28.7427 33.8887 28.9966 34.543 28.9966C35.4023 28.9966 36.0298 28.6108 36.4253 27.8394V24.1992C36.02 23.4521 35.3975 23.0786 34.5576 23.0786C33.8936 23.0786 33.376 23.335 33.0049 23.8477C32.6338 24.3604 32.4482 25.1196 32.4482 26.1255Z" fill="white"/>
</svg>
